<?xml version="1.0" encoding="UTF-8" standalone="no"?>
<svg
   xmlns:dc="http://purl.org/dc/elements/1.1/"
   xmlns:cc="http://creativecommons.org/ns#"
   xmlns:rdf="http://www.w3.org/1999/02/22-rdf-syntax-ns#"
   xmlns:svg="http://www.w3.org/2000/svg"
   xmlns="http://www.w3.org/2000/svg"
   xmlns:sodipodi="http://sodipodi.sourceforge.net/DTD/sodipodi-0.dtd"
   xmlns:inkscape="http://www.inkscape.org/namespaces/inkscape"
   inkscape:version="1.0 (4035a4fb49, 2020-05-01)"
   sodipodi:docname="projects_img.svg"
   version="1.1"
   viewBox="0 0 1126.19355 855"
   height="855"
   width="1126.19355"
   data-name="Layer 1"
   id="a594ac37-6d44-4297-8862-1cbd9c01c0b7">
  <metadata
     id="metadata107">
    <rdf:RDF>
      <cc:Work
         rdf:about="">
        <dc:format>image/svg+xml</dc:format>
        <dc:type
           rdf:resource="http://purl.org/dc/dcmitype/StillImage" />
        <dc:title>code review</dc:title>
      </cc:Work>
    </rdf:RDF>
  </metadata>
  <defs
     id="defs105" />
  <sodipodi:namedview
     inkscape:current-layer="a594ac37-6d44-4297-8862-1cbd9c01c0b7"
     inkscape:window-maximized="1"
     inkscape:window-y="-8"
     inkscape:window-x="-8"
     inkscape:cy="383.2922"
     inkscape:cx="381.28525"
     inkscape:zoom="0.90481778"
     showgrid="false"
     id="namedview103"
     inkscape:window-height="1017"
     inkscape:window-width="1920"
     inkscape:pageshadow="2"
     inkscape:pageopacity="0"
     guidetolerance="10"
     gridtolerance="10"
     objecttolerance="10"
     borderopacity="1"
     bordercolor="#666666"
     pagecolor="#ffffff" />
  <title
     id="title2">code review</title>
  <path
     id="path4"
     fill="#f2f2f2"
     transform="translate(-36.90323 -22.5)"
     d="M581.7675,778.43794C339.36866,759.99137,50.29677,572.17166,65.01385,378.78054S359.70017,5.35846,602.099,23.805,984.03089,403.667,969.31381,597.05809,824.16633,796.88451,581.7675,778.43794Z" />
  <ellipse
     style="fill:#ffb380"
     id="ellipse6"
     fill="#3f3d56"
     ry="31"
     rx="506"
     cy="756"
     cx="565.19355" />
  <rect
     style="fill:#e3dedb"
     id="rect14"
     fill="#3f3d56"
     height="590"
     width="752"
     y="160.89481"
     x="197.29874" />
  <path
     style="fill:#ffffff"
     id="path16"
     fill="#f2f2f2"
     transform="translate(-36.90323 -22.5)"
     d="M600.54135,265.12914H415.02363a2.25143,2.25143,0,1,1,0-4.50285H600.54135a2.25143,2.25143,0,0,1,0,4.50285Z" />
  <path
     style="fill:#ffffff"
     id="path18"
     fill="#f2f2f2"
     transform="translate(-36.90323 -22.5)"
     d="M803.6202,289.89486H511.83506a2.25143,2.25143,0,0,1,0-4.50286H803.6202a2.25143,2.25143,0,1,1,0,4.50286Z" />
  <path
     style="fill:#ffffff"
     id="path20"
     fill="#f2f2f2"
     transform="translate(-36.90323 -22.5)"
     d="M601.44192,314.66057H415.9242a2.25143,2.25143,0,1,1,0-4.50286H601.44192a2.25143,2.25143,0,1,1,0,4.50286Z" />
  <path
     style="fill:#ffffff"
     id="path22"
     fill="#f2f2f2"
     transform="translate(-36.90323 -22.5)"
     d="M803.6202,315.11086H618.10249a2.25143,2.25143,0,0,1,0-4.50286H803.6202a2.25143,2.25143,0,1,1,0,4.50286Z" />
  <path
     style="fill:#ffffff"
     id="path24"
     fill="#f2f2f2"
     transform="translate(-36.90323 -22.5)"
     d="M601.8922,339.42629H416.37449a2.25143,2.25143,0,0,1,0-4.50286H601.8922a2.25143,2.25143,0,1,1,0,4.50286Z" />
  <path
     style="fill:#ffffff"
     id="path26"
     fill="#f2f2f2"
     transform="translate(-36.90323 -22.5)"
     d="M602.34249,364.192H416.82477a2.25143,2.25143,0,0,1,0-4.50286H602.34249a2.25143,2.25143,0,1,1,0,4.50286Z" />
  <path
     style="fill:#ffffff"
     id="path28"
     fill="#f2f2f2"
     transform="translate(-36.90323 -22.5)"
     d="M686.54592,265.57943H633.4122a2.25143,2.25143,0,0,1,0-4.50286h53.13372a2.25143,2.25143,0,1,1,0,4.50286Z" />
  <path
     style="fill:#ffffff"
     id="path30"
     fill="#f2f2f2"
     transform="translate(-36.90323 -22.5)"
     d="M686.54592,339.42629H633.4122a2.25143,2.25143,0,0,1,0-4.50286h53.13372a2.25143,2.25143,0,1,1,0,4.50286Z" />
  <path
     style="fill:#ffffff"
     id="path32"
     fill="#f2f2f2"
     transform="translate(-36.90323 -22.5)"
     d="M686.54592,363.74171H633.4122a2.25143,2.25143,0,1,1,0-4.50285h53.13372a2.25143,2.25143,0,1,1,0,4.50285Z" />
  <path
     style="fill:#ffffff"
     id="path34"
     fill="#f2f2f2"
     transform="translate(-36.90323 -22.5)"
     d="M775.70249,363.74171H722.56877a2.25143,2.25143,0,0,1,0-4.50285h53.13372a2.25143,2.25143,0,1,1,0,4.50285Z" />
  <path
     style="fill:#ffffff"
     id="path36"
     fill="#f2f2f2"
     transform="translate(-36.90323 -22.5)"
     d="M467.70706,289.89486H414.57335a2.25143,2.25143,0,0,1,0-4.50286h53.13371a2.25143,2.25143,0,0,1,0,4.50286Z" />
  <path
     id="path38"
     fill="#f2f2f2"
     transform="translate(-36.90323 -22.5)"
     d="M600.76649,629.86057H415.24877a2.25143,2.25143,0,0,1,0-4.50286H600.76649a2.25143,2.25143,0,0,1,0,4.50286Z" />
  <path
     id="path40"
     fill="#f2f2f2"
     transform="translate(-36.90323 -22.5)"
     d="M599.86592,679.392H414.3482a2.25143,2.25143,0,1,1,0-4.50286H599.86592a2.25143,2.25143,0,0,1,0,4.50286Z" />
  <path
     id="path42"
     fill="#f2f2f2"
     transform="translate(-36.90323 -22.5)"
     d="M600.3162,704.15771H414.79849a2.25143,2.25143,0,1,1,0-4.50285H600.3162a2.25143,2.25143,0,1,1,0,4.50285Z" />
  <path
     id="path44"
     fill="#f2f2f2"
     transform="translate(-36.90323 -22.5)"
     d="M679.56649,679.84229H626.43277a2.25143,2.25143,0,0,1,0-4.50286h53.13372a2.25143,2.25143,0,0,1,0,4.50286Z" />
  <path
     id="path46"
     fill="#f2f2f2"
     transform="translate(-36.90323 -22.5)"
     d="M679.56649,704.15771H626.43277a2.25142,2.25142,0,0,1,0-4.50285h53.13372a2.25142,2.25142,0,1,1,0,4.50285Z" />
  <path
     id="path48"
     fill="#f2f2f2"
     transform="translate(-36.90323 -22.5)"
     d="M768.72306,679.84229H715.58935a2.25143,2.25143,0,1,1,0-4.50286h53.13371a2.25143,2.25143,0,0,1,0,4.50286Z" />
  <path
     id="path50"
     fill="#f2f2f2"
     transform="translate(-36.90323 -22.5)"
     d="M803.84535,654.62629H512.0602a2.25143,2.25143,0,0,1,0-4.50286H803.84535a2.25143,2.25143,0,0,1,0,4.50286Z" />
  <path
     id="path52"
     fill="#f2f2f2"
     transform="translate(-36.90323 -22.5)"
     d="M467.9322,654.62629H414.79849a2.25143,2.25143,0,0,1,0-4.50286H467.9322a2.25143,2.25143,0,0,1,0,4.50286Z" />
  <path
     id="path54"
     fill="#f2f2f2"
     transform="translate(-36.90323 -22.5)"
     d="M803.84535,729.37371H512.0602a2.25143,2.25143,0,1,1,0-4.50285H803.84535a2.25142,2.25142,0,0,1,0,4.50285Z" />
  <path
     id="path56"
     fill="#f2f2f2"
     transform="translate(-36.90323 -22.5)"
     d="M467.9322,729.37371H414.79849a2.25143,2.25143,0,1,1,0-4.50285H467.9322a2.25143,2.25143,0,1,1,0,4.50285Z" />
  <polygon
     style="fill:#ff6600"
     id="polygon58"
     fill="#6c63ff"
     points="519.06 401.13 447.014 472.275 519.06 543.42 535.27 527.21 480.786 472.725 535.72 417.79 519.06 401.13" />
  <polygon
     style="fill:#ff6600"
     id="polygon60"
     fill="#6c63ff"
     points="625.327 401.13 697.373 472.275 625.327 543.42 609.117 527.21 663.602 472.725 608.667 417.79 625.327 401.13" />
  <circle
     style="fill:#ff6600"
     id="circle62"
     fill="#6c63ff"
     r="9"
     cy="177"
     cx="216.19355" />
  <circle
     style="fill:#ff6600"
     id="circle64"
     fill="#6c63ff"
     r="9"
     cy="177"
     cx="240.19355" />
  <circle
     style="fill:#ff6600"
     id="circle66"
     fill="#6c63ff"
     r="9"
     cy="177"
     cx="264.19355" />
  <rect
     id="rect68"
     opacity="0.1"
     height="3"
     width="752"
     y="192"
     x="196.19355" />
</svg>
